#!OML:ASF H:\ManfredObstacles\Project 1\Capture day 2\Session 1\male.ASF
:FULLY-SPECIFIED
:DEGREES
351
root 2.53359 15.5612 -8.90614 -156.973 -1.6904 179.548
lowerback 15.7742 2.75238 -3.52726
upperback 10.8517 1.31934 -0.602843
thorax 2.60572 -0.258498 1.13878
lowerneck -30.5468 -1.52582 0.545195
upperneck 25.7654 -4.37245 4.74309
head 13.9873 -1.20089 0.909274
rclavicle -5.96354e-016 2.10712e-014
rhumerus -21.5971 17.655 -94.1746
rradius 65.2309
rwrist 28.7727
rhand -3.79043 -10.4414
rfingers 7.12502
rthumb 21.9552 -39.2155
lclavicle -5.96354e-016 2.10712e-014
lhumerus -24.8561 -29.5434 95.0035
lradius 69.844
lwrist -27.225
lhand -9.50236 14.4062
lfingers 7.12502
lthumb 16.4628 43.7277
rfemur -19.4748 6.51979 24.762
rtibia 41.6902
rfoot -5.87846 -22.7819
rtoes -28.8458
lfemur -54.4506 -6.91379 -15.9601
ltibia 44.4652
lfoot 6.60246 13.8793
ltoes -5.65801
352
root 2.50921 15.5813 -9.11716 -157.146 -1.67462 179.418
lowerback 15.1893 2.64726 -3.71021
upperback 10.5696 1.28245 -0.685293
thorax 2.60691 -0.242471 1.16909
lowerneck -30.5408 -1.54735 0.548466
upperneck 25.8917 -4.4115 4.70891
head 14.04 -1.22259 0.887168
rclavicle 1.20265e-014 1.39149e-015
rhumerus -22.4729 17.4159 -94.0624
rradius 65.6914
rwrist 27.9992
rhand -4.132 -10.5544
rfingers 7.12502
rthumb 21.6272 -39.3666
lclavicle 1.20265e-014 1.39149e-015
lhumerus -25.2626 -29.8678 95.0722
lradius 69.9369
lwrist -27.0048
lhand -9.31057 14.0647
lfingers 7.12502
lthumb 16.6475 43.3707
rfemur -18.8257 6.19117 24.6463
rtibia 41.9881
rfoot -4.59328 -22.177
rtoes -28.5368
lfemur -53.4542 -6.6628 -16.4793
ltibia 44.7184
lfoot 5.83394 13.9559
ltoes -6.76478
353
root 2.48445 15.6039 -9.32818 -157.309 -1.66368 179.29
lowerback 14.6055 2.53546 -3.87862
upperback 10.2822 1.23806 -0.766886
thorax 2.6052 -0.229549 1.19283
lowerneck -30.5398 -1.55769 0.568927
upperneck 25.9981 -4.43088 4.65017
head 14.0833 -1.2376 0.856224
rclavicle 2.88238e-015 -1.0635e-014
rhumerus -23.3399 17.1322 -93.9581
rradius 66.0924
rwrist 27.2343
rhand -4.5171 -10.6693
rfingers 7.12502
rthumb 21.2573 -39.5237
lclavicle 2.88238e-015 -1.0635e-014
lhumerus -25.603 -30.2378 95.1254
lradius 70.0192
lwrist -26.7301
lhand -9.10836 13.7535
lfingers 7.12502
lthumb 16.8421 43.0431
rfemur -18.2843 5.82838 24.5202
rtibia 42.4024
rfoot -3.19984 -21.5093
rtoes -28.2007
lfemur -52.4589 -6.41908 -16.9579
ltibia 44.9345
lfoot 5.11955 13.9422
ltoes -7.9414
354
root 2.45909 15.629 -9.53998 -157.504 -1.68346 179.159
lowerback 14.0832 2.40913 -4.01952
upperback 9.98685 1.17124 -0.841022
thorax 2.56667 -0.227116 1.21066
lowerneck -30.5212 -1.56075 0.583833
upperneck 26.0846 -4.43275 4.58687
head 14.1141 -1.24697 0.827839
rclavicle 2.10712e-014 -1.11319e-014
rhumerus -24.2331 16.7934 -93.8695
rradius 66.4469
rwrist 26.4679
rhand -4.89177 -10.7871
rfingers 7.12502
rthumb 20.8974 -39.6815
lclavicle 2.10712e-014 -1.11319e-014
lhumerus -25.9169 -30.6275 95.1857
lradius 70.1005
lwrist -26.4802
lhand -8.89017 13.4755
lfingers 7.12502
lthumb 17.0522 42.7471
rfemur -17.8037 5.40941 24.3967
rtibia 42.9467
rfoot -1.73236 -20.7931
rtoes -27.7781
lfemur -51.4217 -6.20475 -17.4072
ltibia 45.116
lfoot 4.43832 13.8795
ltoes -9.07049
355
root 2.43348 15.6553 -9.75208 -157.713 -1.72213 179.044
lowerback 13.6018 2.26543 -4.13458
upperback 9.67281 1.08175 -0.902441
thorax 2.49005 -0.233947 1.22913
lowerneck -30.4754 -1.54751 0.600081
upperneck 26.1661 -4.40376 4.5028
head 14.1358 -1.2468 0.797154
rclavicle -2.18663e-015 -9.93923e-016
rhumerus -25.1722 16.4129 -93.7964
rradius 66.7545
rwrist 25.7402
rhand -5.25962 -10.8794
rfingers 7.12502
rthumb 20.544 -39.8124
lclavicle -2.18663e-015 -9.93923e-016
lhumerus -26.213 -31.0272 95.2517
lradius 70.1803
lwrist -26.2407
lhand -8.70378 13.2328
lfingers 7.12502
lthumb 17.2316 42.4888
rfemur -17.4237 4.96625 24.2882
rtibia 43.6559
rfoot -0.221236 -20.0678
rtoes -27.3835
lfemur -50.3676 -6.0003 -17.8213
ltibia 45.2742
lfoot 3.79859 13.8003
ltoes -10.1651
356
root 2.40791 15.6818 -9.96364 -157.934 -1.76318 178.95
lowerback 13.16 2.1113 -4.22813
upperback 9.34693 0.976261 -0.952716
thorax 2.38279 -0.247818 1.24799
lowerneck -30.4459 -1.51909 0.613023
upperneck 26.2726 -4.35252 4.41283
head 14.1707 -1.23786 0.769236
rclavicle 9.54166e-015 -1.2921e-014
rhumerus -26.1517 15.9947 -93.7305
rradius 67.0337
rwrist 25.053
rhand -5.59247 -10.9457
rfingers 7.12502
rthumb 20.2241 -39.9129
lclavicle 9.54166e-015 -1.2921e-014
lhumerus -26.4766 -31.4269 95.3114
lradius 70.2663
lwrist -26.0765
lhand -8.52317 13.0287
lfingers 7.12502
lthumb 17.4054 42.2694
rfemur -17.1682 4.5157 24.1963
rtibia 44.5641
rfoot 1.3505 -19.3314
rtoes -26.6723
lfemur -49.3002 -5.79587 -18.2017
ltibia 45.4133
lfoot 3.19881 13.733
ltoes -11.1727
357
root 2.38277 15.7073 -10.1743 -158.143 -1.78099 178.865
lowerback 12.7335 1.95475 -4.31608
upperback 9.00598 0.866134 -1.00267
thorax 2.25365 -0.263064 1.26375
lowerneck -30.4435 -1.4807 0.621292
upperneck 26.4145 -4.29165 4.3285
head 14.2266 -1.22383 0.746352
rclavicle 1.76918e-014 2.74323e-014
rhumerus -27.1813 15.5182 -93.6759
rradius 67.3018
rwrist 24.42
rhand -5.89154 -10.9812
rfingers 7.12502
rthumb 19.9366 -39.9785
lclavicle 1.76918e-014 2.74323e-014
lhumerus -26.7164 -31.8348 95.3652
lradius 70.3717
lwrist -25.9531
lhand -8.41036 12.8595
lfingers 7.12502
lthumb 17.514 42.0906
rfemur -17.0859 4.08674 24.1034
rtibia 45.7074
rfoot 2.96581 -18.6252
rtoes -25.6682
lfemur -48.238 -5.58179 -18.565
ltibia 45.5352
lfoot 2.64747 13.693
ltoes -12.0676
358
root 2.35878 15.7314 -10.3839 -158.33 -1.74757 178.794
lowerback 12.298 1.80436 -4.41947
upperback 8.65038 0.762333 -1.05559
thorax 2.11533 -0.275157 1.28374
lowerneck -30.4682 -1.42672 0.640303
upperneck 26.6099 -4.22166 4.2448
head 14.3111 -1.20424 0.723794
rclavicle 1.39149e-015 1.80894e-014
rhumerus -28.2708 15.0025 -93.6384
rradius 67.5818
rwrist 23.8095
rhand -6.18818 -10.9858
rfingers 7.12502
rthumb 19.6515 -40.0125
lclavicle 1.39149e-015 1.80894e-014
lhumerus -26.94 -32.2417 95.4061
lradius 70.5173
lwrist -25.8333
lhand -8.35192 12.7088
lfingers 7.12502
lthumb 17.5702 41.9348
rfemur -17.1984 3.71363 24.0097
rtibia 47.092
rfoot 4.59323 -17.9817
rtoes -24.3529
lfemur -47.1848 -5.34756 -18.9084
ltibia 45.6343
lfoot 2.17265 13.6883
ltoes -12.8969
359
root 2.33675 15.7533 -10.5911 -158.48 -1.63575 178.715
lowerback 11.8408 1.67238 -4.57236
upperback 8.29465 0.676037 -1.11997
thorax 1.98946 -0.281555 1.31697
lowerneck -30.5207 -1.36925 0.64995
upperneck 26.7878 -4.14245 4.17106
head 14.3942 -1.17969 0.708683
rclavicle 9.34288e-015 -3.57812e-015
rhumerus -29.3821 14.4507 -93.6071
rradius 67.8746
rwrist 23.2605
rhand -6.49009 -10.9788
rfingers 7.12502
rthumb 19.3612 -40.0349
lclavicle 9.34288e-015 -3.57812e-015
lhumerus -27.1085 -32.6396 95.4165
lradius 70.7009
lwrist -25.7213
lhand -8.3837 12.5678
lfingers 7.12502
lthumb 17.5396 41.7966
rfemur -17.5367 3.4319 23.8922
rtibia 48.7076
rfoot 6.23931 -17.4327
rtoes -22.8886
lfemur -46.1564 -5.0817 -19.2572
ltibia 45.7057
lfoot 1.79606 13.7069
ltoes -13.6658
360
root 2.3159 15.7735 -10.7973 -158.605 -1.46282 178.632
lowerback 11.3598 1.55006 -4.75126
upperback 7.93707 0.598913 -1.1973
thorax 1.87603 -0.285048 1.34976
lowerneck -30.5938 -1.30827 0.660649
upperneck 26.9658 -4.06164 4.10597
head 14.4822 -1.15283 0.697219
rclavicle -2.5842e-015 7.15625e-015
rhumerus -30.5367 13.8733 -93.5937
rradius 68.1906
rwrist 22.7464
rhand -6.75488 -10.9945
rfingers 7.12502
rthumb 19.1066 -40.076
lclavicle -2.5842e-015 7.15625e-015
lhumerus -27.2551 -33.0149 95.3994
lradius 70.9461
lwrist -25.5933
lhand -8.45039 12.4253
lfingers 7.12502
lthumb 17.4754 41.6598
rfemur -18.0569 3.22415 23.7622
rtibia 50.5068
rfoot 7.84014 -17.0176
rtoes -21.3798
lfemur -45.1309 -4.80155 -19.6052
ltibia 45.7457
lfoot 1.50575 13.7502
ltoes -14.36
361
root 2.29635 15.7919 -11.0024 -158.712 -1.23049 178.539
lowerback 10.85 1.44077 -4.96018
upperback 7.59762 0.532939 -1.28724
thorax 1.7988 -0.287041 1.38438
lowerneck -30.7183 -1.2471 0.671303
upperneck 27.1431 -3.98461 4.05474
head 14.5813 -1.12435 0.690692
rclavicle -1.80894e-014 -1.90833e-014
rhumerus -31.6869 13.2869 -93.5872
rradius 68.4969
rwrist 22.2913
rhand -7.01261 -11.0286
rfingers 7.12502
rthumb 18.8587 -40.1344
lclavicle -1.80894e-014 -1.90833e-014
lhumerus -27.3303 -33.3675 95.3283
lradius 71.2518
lwrist -25.4643
lhand -8.5334 12.287
lfingers 7.12502
lthumb 17.3955 41.5286
rfemur -18.7307 3.09917 23.6176
rtibia 52.4418
rfoot 9.31438 -16.7863
rtoes -20.0296
lfemur -44.1108 -4.51427 -19.956
ltibia 45.7576
lfoot 1.30615 13.8078
ltoes -14.9589
362
root 2.27663 15.8085 -11.2067 -158.859 -1.00682 178.426
lowerback 10.3864 1.3192 -5.15888
upperback 7.28485 0.440244 -1.3842
thorax 1.72811 -0.306022 1.4073
lowerneck -30.8501 -1.17021 0.705301
upperneck 27.3 -3.89085 3.99669
head 14.6723 -1.08731 0.681031
rclavicle 1.03368e-014 1.66979e-014
rhumerus -32.8422 12.7255 -93.5977
rradius 68.7816
rwrist 21.8378
rhand -7.27789 -11.1222
rfingers 7.12502
rthumb 18.6035 -40.2526
lclavicle 1.03368e-014 1.66979e-014
lhumerus -27.3439 -33.6673 95.2146
lradius 71.6091
lwrist -25.3135
lhand -8.62458 12.1542
lfingers 7.12502
lthumb 17.3078 41.4035
rfemur -19.4537 2.97632 23.4681
rtibia 54.4564
rfoot 10.5096 -16.7633
rtoes -19.0009
lfemur -43.0466 -4.28451 -20.3045
ltibia 45.7498
lfoot 1.16359 13.8671
ltoes -15.4526
363
root 2.25684 15.824 -11.4108 -159.037 -0.798311 178.305
lowerback 9.95549 1.1833 -5.33559
upperback 6.99803 0.321372 -1.48449
thorax 1.67022 -0.340983 1.41561
lowerneck -30.986 -1.08639 0.745256
upperneck 27.429 -3.78741 3.94283
head 14.752 -1.04494 0.674199
rclavicle -1.03368e-014 -3.06128e-014
rhumerus -33.9883 12.2029 -93.6212
rradius 69.0074
rwrist 21.3978
rhand -7.57124 -11.2499
rfingers 7.12502
rthumb 18.3214 -40.4071
lclavicle -1.03368e-014 -3.06128e-014
lhumerus -27.2888 -33.9143 95.0497
lradius 72.0183
lwrist -25.1559
lhand -8.70055 12.0374
lfingers 7.12502
lthumb 17.2347 41.2931
rfemur -20.214 2.84703 23.3273
rtibia 56.5123
rfoot 11.3293 -16.9496
rtoes -18.3988
lfemur -41.9548 -4.11077 -20.6335
ltibia 45.7331
lfoot 1.05663 13.9173
ltoes -15.894
